%TF.GenerationSoftware,KiCad,Pcbnew,9.0.1*%
%TF.CreationDate,2025-04-30T19:02:26+02:00*%
%TF.ProjectId,board,626f6172-642e-46b6-9963-61645f706362,rev?*%
%TF.SameCoordinates,Original*%
%TF.FileFunction,Copper,L2,Bot*%
%TF.FilePolarity,Positive*%
%FSLAX46Y46*%
G04 Gerber Fmt 4.6, Leading zero omitted, Abs format (unit mm)*
G04 Created by KiCad (PCBNEW 9.0.1) date 2025-04-30 19:02:26*
%MOMM*%
%LPD*%
G01*
G04 APERTURE LIST*
G04 Aperture macros list*
%AMFreePoly0*
4,1,5,0.500000,-1.800000,-0.500000,-1.800000,-0.500000,1.800000,0.500000,1.900000,0.500000,-1.800000,0.500000,-1.800000,$1*%
%AMFreePoly1*
4,1,5,0.500000,1.800000,0.500000,-1.800000,-0.500000,-1.800000,-0.500000,1.900000,0.500000,1.800000,0.500000,1.800000,$1*%
%AMFreePoly2*
4,1,5,0.500000,1.900000,0.500000,-1.900000,-0.500000,-1.900000,-0.500000,2.000000,0.500000,1.900000,0.500000,1.900000,$1*%
%AMFreePoly3*
4,1,5,0.500000,-1.500000,-0.500000,-1.500000,-0.500000,2.300000,0.500000,2.400000,0.500000,-1.500000,0.500000,-1.500000,$1*%
%AMFreePoly4*
4,1,5,0.500000,1.700000,0.500000,-1.700000,-0.500000,-1.700000,-0.500000,1.800000,0.500000,1.700000,0.500000,1.700000,$1*%
G04 Aperture macros list end*
%TA.AperFunction,SMDPad,CuDef*%
%ADD10FreePoly0,90.000000*%
%TD*%
%TA.AperFunction,SMDPad,CuDef*%
%ADD11R,3.500000X1.000000*%
%TD*%
%TA.AperFunction,SMDPad,CuDef*%
%ADD12FreePoly1,90.000000*%
%TD*%
%TA.AperFunction,SMDPad,CuDef*%
%ADD13FreePoly2,90.000000*%
%TD*%
%TA.AperFunction,SMDPad,CuDef*%
%ADD14FreePoly0,270.000000*%
%TD*%
%TA.AperFunction,SMDPad,CuDef*%
%ADD15FreePoly3,270.000000*%
%TD*%
%TA.AperFunction,SMDPad,CuDef*%
%ADD16R,4.000000X1.000000*%
%TD*%
%TA.AperFunction,SMDPad,CuDef*%
%ADD17FreePoly1,270.000000*%
%TD*%
%TA.AperFunction,SMDPad,CuDef*%
%ADD18FreePoly4,270.000000*%
%TD*%
%TA.AperFunction,ViaPad*%
%ADD19C,0.500000*%
%TD*%
%TA.AperFunction,Conductor*%
%ADD20C,0.500000*%
%TD*%
%TA.AperFunction,Conductor*%
%ADD21C,0.200000*%
%TD*%
G04 APERTURE END LIST*
D10*
%TO.P,J2,6,C4+*%
%TO.N,Net-(J1-C4+)*%
X158600000Y-92500000D03*
D11*
%TO.P,J2,7*%
%TO.N,N/C*%
X158650000Y-94500000D03*
%TO.P,J2,8*%
X158650000Y-96500000D03*
D12*
%TO.P,J2,9*%
X158600000Y-98500000D03*
D13*
%TO.P,J2,10*%
X158500000Y-100500000D03*
%TD*%
D14*
%TO.P,J1,6,C4+*%
%TO.N,Net-(J1-C4+)*%
X142400000Y-92500000D03*
D15*
%TO.P,J1,7*%
%TO.N,N/C*%
X142100000Y-94500000D03*
D16*
%TO.P,J1,8*%
X142600000Y-96500000D03*
D17*
%TO.P,J1,9*%
X142400000Y-98500000D03*
D18*
%TO.P,J1,10*%
X142300000Y-100500000D03*
%TD*%
D19*
%TO.N,GND*%
X145300000Y-91900000D03*
X145600000Y-93300000D03*
X147750000Y-93600000D03*
X148500000Y-92500000D03*
X151100000Y-92500000D03*
X153700000Y-92500000D03*
X155400000Y-91900000D03*
X155500000Y-93200000D03*
X155300000Y-90800000D03*
X153200000Y-90800000D03*
X150800000Y-90800000D03*
X148600000Y-90800000D03*
X146600000Y-90700000D03*
X145100000Y-90700000D03*
X145700000Y-95100000D03*
X147100000Y-95700000D03*
X145400000Y-97400000D03*
X146000000Y-100000000D03*
X149200000Y-102300000D03*
X147700000Y-102300000D03*
X146300000Y-102300000D03*
X145100000Y-102300000D03*
%TO.N,/protector/BAL*%
X150400000Y-99800000D03*
X154500000Y-100400000D03*
%TO.N,GND*%
X148450000Y-94800000D03*
X146000000Y-98150000D03*
%TO.N,Net-(Q3-G)*%
X150350000Y-97149000D03*
X150400000Y-95800000D03*
%TO.N,Net-(Q4-G)*%
X147800000Y-98050000D03*
X149000000Y-94250000D03*
%TD*%
D20*
%TO.N,Net-(J1-C4+)*%
X145560127Y-92528000D02*
X142428000Y-92528000D01*
X146216127Y-91872000D02*
X145560127Y-92528000D01*
X142428000Y-92528000D02*
X142400000Y-92500000D01*
X153960127Y-91872000D02*
X146216127Y-91872000D01*
X154616127Y-92528000D02*
X153960127Y-91872000D01*
X158572000Y-92528000D02*
X154616127Y-92528000D01*
X158600000Y-92500000D02*
X158572000Y-92528000D01*
%TO.N,/protector/BAL*%
X150400000Y-99800000D02*
X150500000Y-99900000D01*
X150500000Y-99900000D02*
X154000000Y-99900000D01*
X154000000Y-99900000D02*
X154500000Y-100400000D01*
D21*
%TO.N,Net-(Q4-G)*%
X149000000Y-96850000D02*
X147800000Y-98050000D01*
X149000000Y-94250000D02*
X149000000Y-96850000D01*
%TO.N,Net-(Q3-G)*%
X150350000Y-97149000D02*
X150350000Y-95850000D01*
X150350000Y-95850000D02*
X150400000Y-95800000D01*
%TD*%
%TA.AperFunction,Conductor*%
%TO.N,GND*%
G36*
X153790707Y-92341407D02*
G01*
X153802520Y-92351496D01*
X154339513Y-92888489D01*
X154339515Y-92888490D01*
X154339516Y-92888491D01*
X154339517Y-92888492D01*
X154442234Y-92947796D01*
X154442236Y-92947797D01*
X154442240Y-92947799D01*
X154466449Y-92954284D01*
X154466452Y-92954287D01*
X154466453Y-92954286D01*
X154556815Y-92978499D01*
X154556817Y-92978500D01*
X155901000Y-92978500D01*
X155959191Y-92997407D01*
X155995155Y-93046907D01*
X156000000Y-93077500D01*
X156000000Y-102700500D01*
X155981093Y-102758691D01*
X155931593Y-102794655D01*
X155901000Y-102799500D01*
X144599000Y-102799500D01*
X144540809Y-102780593D01*
X144504845Y-102731093D01*
X144500000Y-102700500D01*
X144500000Y-99740692D01*
X149949500Y-99740692D01*
X149949500Y-99859308D01*
X149963307Y-99910837D01*
X149980202Y-99973891D01*
X150039507Y-100076609D01*
X150039509Y-100076611D01*
X150039511Y-100076614D01*
X150223386Y-100260489D01*
X150230701Y-100264712D01*
X150326114Y-100319799D01*
X150440691Y-100350500D01*
X153772390Y-100350500D01*
X153830581Y-100369407D01*
X153842393Y-100379496D01*
X154223386Y-100760490D01*
X154326113Y-100819799D01*
X154350320Y-100826284D01*
X154350325Y-100826287D01*
X154350326Y-100826286D01*
X154440688Y-100850499D01*
X154440690Y-100850500D01*
X154440691Y-100850500D01*
X154559309Y-100850500D01*
X154649669Y-100826287D01*
X154649672Y-100826287D01*
X154673887Y-100819799D01*
X154776614Y-100760490D01*
X154860490Y-100676614D01*
X154919799Y-100573887D01*
X154930141Y-100535288D01*
X154950500Y-100459309D01*
X154950500Y-100340691D01*
X154919799Y-100226114D01*
X154919799Y-100226113D01*
X154860490Y-100123386D01*
X154276614Y-99539511D01*
X154276611Y-99539509D01*
X154276610Y-99539508D01*
X154276609Y-99539507D01*
X154173892Y-99480203D01*
X154173889Y-99480202D01*
X154173887Y-99480201D01*
X154148452Y-99473386D01*
X154059309Y-99449500D01*
X154059308Y-99449500D01*
X150720443Y-99449500D01*
X150670943Y-99436236D01*
X150573890Y-99380202D01*
X150573886Y-99380200D01*
X150549673Y-99373712D01*
X150549673Y-99373713D01*
X150459309Y-99349500D01*
X150340691Y-99349500D01*
X150295508Y-99361606D01*
X150250325Y-99373713D01*
X150250324Y-99373712D01*
X150226112Y-99380201D01*
X150226109Y-99380202D01*
X150123390Y-99439507D01*
X150039507Y-99523390D01*
X149980200Y-99626112D01*
X149980200Y-99626113D01*
X149980201Y-99626114D01*
X149949500Y-99740692D01*
X144500000Y-99740692D01*
X144500000Y-98070188D01*
X144500039Y-98067414D01*
X144500138Y-98063862D01*
X144504480Y-98020448D01*
X144502622Y-97990691D01*
X147349500Y-97990691D01*
X147349500Y-98109309D01*
X147376574Y-98210351D01*
X147380202Y-98223890D01*
X147439507Y-98326608D01*
X147439509Y-98326610D01*
X147439511Y-98326613D01*
X147523387Y-98410489D01*
X147523389Y-98410490D01*
X147523391Y-98410492D01*
X147626110Y-98469797D01*
X147626111Y-98469797D01*
X147626114Y-98469799D01*
X147740691Y-98500500D01*
X147740693Y-98500500D01*
X147859307Y-98500500D01*
X147859309Y-98500500D01*
X147973886Y-98469799D01*
X147973888Y-98469797D01*
X147973890Y-98469797D01*
X148076608Y-98410492D01*
X148076608Y-98410491D01*
X148076613Y-98410489D01*
X148160489Y-98326613D01*
X148219799Y-98223886D01*
X148250500Y-98109309D01*
X148250500Y-98065478D01*
X148269407Y-98007287D01*
X148279490Y-97995480D01*
X149185280Y-97089691D01*
X149899500Y-97089691D01*
X149899500Y-97208309D01*
X149923935Y-97299500D01*
X149930202Y-97322890D01*
X149989507Y-97425608D01*
X149989509Y-97425610D01*
X149989511Y-97425613D01*
X150073387Y-97509489D01*
X150073389Y-97509490D01*
X150073391Y-97509492D01*
X150176110Y-97568797D01*
X150176111Y-97568797D01*
X150176114Y-97568799D01*
X150290691Y-97599500D01*
X150290693Y-97599500D01*
X150409307Y-97599500D01*
X150409309Y-97599500D01*
X150523886Y-97568799D01*
X150523888Y-97568797D01*
X150523890Y-97568797D01*
X150626608Y-97509492D01*
X150626608Y-97509491D01*
X150626613Y-97509489D01*
X150710489Y-97425613D01*
X150769799Y-97322886D01*
X150800500Y-97208309D01*
X150800500Y-97089691D01*
X150769799Y-96975114D01*
X150769797Y-96975111D01*
X150769797Y-96975109D01*
X150710492Y-96872391D01*
X150710491Y-96872390D01*
X150710490Y-96872389D01*
X150710489Y-96872387D01*
X150679495Y-96841393D01*
X150651719Y-96786876D01*
X150650500Y-96771390D01*
X150650500Y-96227609D01*
X150669407Y-96169418D01*
X150679490Y-96157611D01*
X150760489Y-96076613D01*
X150819799Y-95973886D01*
X150850500Y-95859309D01*
X150850500Y-95740691D01*
X150819799Y-95626114D01*
X150819797Y-95626111D01*
X150819797Y-95626109D01*
X150760492Y-95523391D01*
X150760490Y-95523389D01*
X150760489Y-95523387D01*
X150676613Y-95439511D01*
X150676610Y-95439509D01*
X150676608Y-95439507D01*
X150573889Y-95380202D01*
X150573890Y-95380202D01*
X150560351Y-95376574D01*
X150459309Y-95349500D01*
X150340691Y-95349500D01*
X150270567Y-95368289D01*
X150226109Y-95380202D01*
X150123391Y-95439507D01*
X150039507Y-95523391D01*
X149980202Y-95626109D01*
X149980201Y-95626114D01*
X149949500Y-95740691D01*
X149949500Y-95859309D01*
X149980201Y-95973886D01*
X149980202Y-95973888D01*
X150036236Y-96070940D01*
X150049500Y-96120441D01*
X150049500Y-96771390D01*
X150030593Y-96829581D01*
X150020505Y-96841393D01*
X149989507Y-96872391D01*
X149930202Y-96975109D01*
X149919857Y-97013717D01*
X149899500Y-97089691D01*
X149185280Y-97089691D01*
X149240460Y-97034511D01*
X149252468Y-97013712D01*
X149280021Y-96965989D01*
X149300500Y-96889562D01*
X149300500Y-94627609D01*
X149319407Y-94569418D01*
X149329490Y-94557611D01*
X149360489Y-94526613D01*
X149419799Y-94423886D01*
X149450500Y-94309309D01*
X149450500Y-94190691D01*
X149419799Y-94076114D01*
X149419797Y-94076111D01*
X149419797Y-94076109D01*
X149360492Y-93973391D01*
X149360490Y-93973389D01*
X149360489Y-93973387D01*
X149276613Y-93889511D01*
X149276610Y-93889509D01*
X149276608Y-93889507D01*
X149173889Y-93830202D01*
X149173890Y-93830202D01*
X149160351Y-93826574D01*
X149059309Y-93799500D01*
X148940691Y-93799500D01*
X148883401Y-93814851D01*
X148826109Y-93830202D01*
X148723391Y-93889507D01*
X148639507Y-93973391D01*
X148580202Y-94076109D01*
X148580201Y-94076114D01*
X148549500Y-94190691D01*
X148549500Y-94309309D01*
X148576574Y-94410351D01*
X148580202Y-94423890D01*
X148639507Y-94526608D01*
X148639509Y-94526610D01*
X148639511Y-94526613D01*
X148670505Y-94557607D01*
X148698281Y-94612122D01*
X148699500Y-94627609D01*
X148699500Y-96684521D01*
X148680593Y-96742712D01*
X148670504Y-96754525D01*
X147854525Y-97570504D01*
X147800008Y-97598281D01*
X147784521Y-97599500D01*
X147740691Y-97599500D01*
X147670567Y-97618289D01*
X147626109Y-97630202D01*
X147523391Y-97689507D01*
X147439507Y-97773391D01*
X147380202Y-97876109D01*
X147380201Y-97876114D01*
X147349500Y-97990691D01*
X144502622Y-97990691D01*
X144500348Y-97954272D01*
X144500347Y-97954271D01*
X144500192Y-97951780D01*
X144500000Y-97945610D01*
X144500000Y-97299500D01*
X144518907Y-97241309D01*
X144568407Y-97205345D01*
X144599000Y-97200500D01*
X144619747Y-97200500D01*
X144619748Y-97200500D01*
X144678231Y-97188867D01*
X144744552Y-97144552D01*
X144788867Y-97078231D01*
X144800500Y-97019748D01*
X144800500Y-95980252D01*
X144788867Y-95921769D01*
X144744552Y-95855448D01*
X144744548Y-95855445D01*
X144678233Y-95811134D01*
X144678231Y-95811133D01*
X144678228Y-95811132D01*
X144678227Y-95811132D01*
X144619758Y-95799501D01*
X144619748Y-95799500D01*
X144619747Y-95799500D01*
X144599000Y-95799500D01*
X144540809Y-95780593D01*
X144504845Y-95731093D01*
X144500000Y-95700500D01*
X144500000Y-95287944D01*
X144518907Y-95229753D01*
X144557613Y-95200398D01*
X144557250Y-95199804D01*
X144563153Y-95196197D01*
X144564567Y-95195125D01*
X144565429Y-95194804D01*
X144565436Y-95194803D01*
X144643478Y-95147120D01*
X144693102Y-95070298D01*
X144704480Y-94979552D01*
X144604480Y-93979552D01*
X144600348Y-93954272D01*
X144560666Y-93871873D01*
X144560665Y-93871872D01*
X144537273Y-93853217D01*
X144503567Y-93802153D01*
X144500000Y-93775817D01*
X144500000Y-93077500D01*
X144518907Y-93019309D01*
X144568407Y-92983345D01*
X144599000Y-92978500D01*
X145619436Y-92978500D01*
X145709796Y-92954287D01*
X145709799Y-92954287D01*
X145723030Y-92950741D01*
X145734014Y-92947799D01*
X145836741Y-92888489D01*
X146373734Y-92351496D01*
X146428251Y-92323719D01*
X146443738Y-92322500D01*
X153732516Y-92322500D01*
X153790707Y-92341407D01*
G37*
%TD.AperFunction*%
%TA.AperFunction,Conductor*%
G36*
X155959191Y-90219407D02*
G01*
X155995155Y-90268907D01*
X156000000Y-90299500D01*
X156000000Y-91978500D01*
X155981093Y-92036691D01*
X155931593Y-92072655D01*
X155901000Y-92077500D01*
X154843738Y-92077500D01*
X154785547Y-92058593D01*
X154773734Y-92048504D01*
X154519730Y-91794500D01*
X154236741Y-91511511D01*
X154236738Y-91511509D01*
X154236737Y-91511508D01*
X154236736Y-91511507D01*
X154134017Y-91452202D01*
X154134013Y-91452200D01*
X154109800Y-91445712D01*
X154109800Y-91445713D01*
X154019436Y-91421500D01*
X146156818Y-91421500D01*
X146111635Y-91433606D01*
X146066452Y-91445713D01*
X146066451Y-91445712D01*
X146042239Y-91452201D01*
X146042236Y-91452202D01*
X145939517Y-91511507D01*
X145402520Y-92048504D01*
X145348003Y-92076281D01*
X145332516Y-92077500D01*
X144599000Y-92077500D01*
X144540809Y-92058593D01*
X144504845Y-92009093D01*
X144500000Y-91978500D01*
X144500000Y-90299500D01*
X144518907Y-90241309D01*
X144568407Y-90205345D01*
X144599000Y-90200500D01*
X155901000Y-90200500D01*
X155959191Y-90219407D01*
G37*
%TD.AperFunction*%
%TD*%
M02*
