%TF.GenerationSoftware,KiCad,Pcbnew,9.0.1*%
%TF.CreationDate,2025-04-30T19:02:26+02:00*%
%TF.ProjectId,board,626f6172-642e-46b6-9963-61645f706362,rev?*%
%TF.SameCoordinates,Original*%
%TF.FileFunction,Legend,Bot*%
%TF.FilePolarity,Positive*%
%FSLAX46Y46*%
G04 Gerber Fmt 4.6, Leading zero omitted, Abs format (unit mm)*
G04 Created by KiCad (PCBNEW 9.0.1) date 2025-04-30 19:02:26*
%MOMM*%
%LPD*%
G01*
G04 APERTURE LIST*
G04 Aperture macros list*
%AMFreePoly0*
4,1,5,0.500000,-1.800000,-0.500000,-1.800000,-0.500000,1.800000,0.500000,1.900000,0.500000,-1.800000,0.500000,-1.800000,$1*%
%AMFreePoly1*
4,1,5,0.500000,1.800000,0.500000,-1.800000,-0.500000,-1.800000,-0.500000,1.900000,0.500000,1.800000,0.500000,1.800000,$1*%
%AMFreePoly2*
4,1,5,0.500000,1.900000,0.500000,-1.900000,-0.500000,-1.900000,-0.500000,2.000000,0.500000,1.900000,0.500000,1.900000,$1*%
%AMFreePoly3*
4,1,5,0.500000,-1.500000,-0.500000,-1.500000,-0.500000,2.300000,0.500000,2.400000,0.500000,-1.500000,0.500000,-1.500000,$1*%
%AMFreePoly4*
4,1,5,0.500000,1.700000,0.500000,-1.700000,-0.500000,-1.700000,-0.500000,1.800000,0.500000,1.700000,0.500000,1.700000,$1*%
G04 Aperture macros list end*
%ADD10C,0.010000*%
%ADD11FreePoly0,90.000000*%
%ADD12R,3.500000X1.000000*%
%ADD13FreePoly1,90.000000*%
%ADD14FreePoly2,90.000000*%
%ADD15FreePoly0,270.000000*%
%ADD16FreePoly3,270.000000*%
%ADD17R,4.000000X1.000000*%
%ADD18FreePoly1,270.000000*%
%ADD19FreePoly4,270.000000*%
G04 APERTURE END LIST*
D10*
%TO.C,LOGO1*%
X149712275Y-93368931D02*
X149796095Y-93813555D01*
X150414667Y-94068551D01*
X150785707Y-93816246D01*
X150859144Y-93766506D01*
X150956499Y-93701218D01*
X151040787Y-93645454D01*
X151107631Y-93602078D01*
X151152654Y-93573953D01*
X151171478Y-93563942D01*
X151183039Y-93571061D01*
X151217596Y-93600894D01*
X151269894Y-93649852D01*
X151335500Y-93713440D01*
X151409983Y-93787163D01*
X151488913Y-93866525D01*
X151567856Y-93947031D01*
X151642384Y-94024185D01*
X151708063Y-94093493D01*
X151760463Y-94150457D01*
X151795153Y-94190584D01*
X151807701Y-94209377D01*
X151804782Y-94217451D01*
X151784571Y-94253469D01*
X151747663Y-94312744D01*
X151697050Y-94390630D01*
X151635725Y-94482481D01*
X151566679Y-94583650D01*
X151528787Y-94638826D01*
X151463606Y-94734884D01*
X151407723Y-94818717D01*
X151364117Y-94885777D01*
X151335769Y-94931519D01*
X151325657Y-94951396D01*
X151325823Y-94952497D01*
X151334743Y-94977694D01*
X151355206Y-95029147D01*
X151384360Y-95100135D01*
X151419353Y-95183935D01*
X151457332Y-95273828D01*
X151495445Y-95363091D01*
X151530839Y-95445003D01*
X151560662Y-95512843D01*
X151582061Y-95559890D01*
X151592184Y-95579422D01*
X151598174Y-95581155D01*
X151634566Y-95588969D01*
X151699427Y-95601915D01*
X151787565Y-95618979D01*
X151893787Y-95639151D01*
X152012902Y-95661418D01*
X152075683Y-95673223D01*
X152190912Y-95695748D01*
X152291662Y-95716550D01*
X152372426Y-95734435D01*
X152427698Y-95748208D01*
X152451971Y-95756674D01*
X152456331Y-95765066D01*
X152463563Y-95806072D01*
X152469246Y-95874368D01*
X152473382Y-95963529D01*
X152475977Y-96067128D01*
X152477036Y-96178740D01*
X152476561Y-96291938D01*
X152474559Y-96400296D01*
X152471033Y-96497389D01*
X152465987Y-96576790D01*
X152459427Y-96632072D01*
X152451356Y-96656810D01*
X152446458Y-96659600D01*
X152409930Y-96671569D01*
X152346565Y-96687405D01*
X152263686Y-96705374D01*
X152168618Y-96723741D01*
X152136542Y-96729591D01*
X151988393Y-96756798D01*
X151871961Y-96778663D01*
X151783209Y-96796093D01*
X151718103Y-96809996D01*
X151672606Y-96821277D01*
X151642682Y-96830843D01*
X151624294Y-96839601D01*
X151613407Y-96848457D01*
X151612142Y-96849943D01*
X151594338Y-96880931D01*
X151567994Y-96937634D01*
X151535661Y-97013399D01*
X151499893Y-97101574D01*
X151463244Y-97195507D01*
X151428266Y-97288547D01*
X151397513Y-97374041D01*
X151373538Y-97445336D01*
X151358895Y-97495782D01*
X151356136Y-97518726D01*
X151357981Y-97521703D01*
X151377075Y-97550493D01*
X151412984Y-97603595D01*
X151462378Y-97676117D01*
X151521927Y-97763167D01*
X151588303Y-97859854D01*
X151606520Y-97886456D01*
X151670577Y-97981875D01*
X151725937Y-98067212D01*
X151769439Y-98137405D01*
X151797924Y-98187394D01*
X151808232Y-98212116D01*
X151806011Y-98218616D01*
X151782858Y-98250644D01*
X151737177Y-98302945D01*
X151672241Y-98371999D01*
X151591319Y-98454286D01*
X151497685Y-98546286D01*
X151444165Y-98597781D01*
X151359542Y-98677983D01*
X151285475Y-98746678D01*
X151225941Y-98800252D01*
X151184917Y-98835085D01*
X151166381Y-98847563D01*
X151153646Y-98842938D01*
X151114436Y-98821057D01*
X151057495Y-98785273D01*
X150990250Y-98740117D01*
X150942438Y-98707165D01*
X150846985Y-98641727D01*
X150745125Y-98572228D01*
X150652088Y-98509075D01*
X150469832Y-98385800D01*
X150316841Y-98468520D01*
X150280817Y-98487613D01*
X150215303Y-98520272D01*
X150164640Y-98542819D01*
X150137564Y-98551226D01*
X150128703Y-98540430D01*
X150106699Y-98499323D01*
X150074199Y-98431549D01*
X150033010Y-98341409D01*
X149984942Y-98233205D01*
X149931802Y-98111237D01*
X149875399Y-97979808D01*
X149817542Y-97843218D01*
X149760038Y-97705767D01*
X149704697Y-97571758D01*
X149653326Y-97445491D01*
X149607735Y-97331268D01*
X149569732Y-97233390D01*
X149541124Y-97156157D01*
X149523721Y-97103871D01*
X149519331Y-97080833D01*
X149519628Y-97080160D01*
X149540077Y-97058863D01*
X149582850Y-97025508D01*
X149639117Y-96987011D01*
X149656877Y-96975256D01*
X149792014Y-96863735D01*
X149903856Y-96730906D01*
X149989755Y-96582298D01*
X150047062Y-96423440D01*
X150073131Y-96259860D01*
X150065313Y-96097088D01*
X150033644Y-95952315D01*
X149976782Y-95806124D01*
X149893888Y-95675703D01*
X149780131Y-95551813D01*
X149735433Y-95512235D01*
X149590935Y-95414723D01*
X149434838Y-95349050D01*
X149271667Y-95314630D01*
X149105943Y-95310874D01*
X148942192Y-95337194D01*
X148784936Y-95393003D01*
X148638698Y-95477714D01*
X148508004Y-95590737D01*
X148397374Y-95731487D01*
X148376105Y-95766342D01*
X148303810Y-95925655D01*
X148265415Y-96091552D01*
X148259914Y-96259737D01*
X148286301Y-96425913D01*
X148343570Y-96585784D01*
X148430717Y-96735053D01*
X148546736Y-96869423D01*
X148690622Y-96984599D01*
X148695294Y-96987702D01*
X148750964Y-97026933D01*
X148792689Y-97060286D01*
X148811746Y-97080833D01*
X148809342Y-97096941D01*
X148794391Y-97143844D01*
X148767881Y-97216539D01*
X148731620Y-97310725D01*
X148687416Y-97422098D01*
X148637076Y-97546358D01*
X148582407Y-97679202D01*
X148525218Y-97816327D01*
X148467316Y-97953432D01*
X148410510Y-98086215D01*
X148356606Y-98210374D01*
X148307412Y-98321606D01*
X148264737Y-98415609D01*
X148230387Y-98488082D01*
X148206171Y-98534722D01*
X148193897Y-98551226D01*
X148183689Y-98548991D01*
X148143586Y-98532926D01*
X148084318Y-98504759D01*
X148014619Y-98468520D01*
X147861629Y-98385800D01*
X147679373Y-98509075D01*
X147625527Y-98545579D01*
X147525374Y-98613784D01*
X147425525Y-98682098D01*
X147341211Y-98740117D01*
X147294679Y-98771736D01*
X147234200Y-98811020D01*
X147189357Y-98837912D01*
X147167455Y-98847883D01*
X147158045Y-98843650D01*
X147124031Y-98817721D01*
X147071595Y-98772070D01*
X147005301Y-98711186D01*
X146929713Y-98639561D01*
X146849396Y-98561683D01*
X146768913Y-98482045D01*
X146692829Y-98405135D01*
X146625707Y-98335445D01*
X146572112Y-98277464D01*
X146536608Y-98235684D01*
X146523759Y-98214593D01*
X146524500Y-98210581D01*
X146539793Y-98177920D01*
X146572462Y-98121412D01*
X146619350Y-98046163D01*
X146677301Y-97957275D01*
X146743157Y-97859854D01*
X146761627Y-97832982D01*
X146826482Y-97738423D01*
X146883609Y-97654827D01*
X146929678Y-97587084D01*
X146961359Y-97540086D01*
X146975324Y-97518726D01*
X146975668Y-97517811D01*
X146971546Y-97491678D01*
X146955807Y-97438740D01*
X146931004Y-97365647D01*
X146899689Y-97279052D01*
X146864417Y-97185608D01*
X146827740Y-97091965D01*
X146792212Y-97004777D01*
X146760386Y-96930695D01*
X146734816Y-96876371D01*
X146718053Y-96848457D01*
X146716374Y-96846724D01*
X146704372Y-96837956D01*
X146684103Y-96829115D01*
X146651529Y-96819292D01*
X146602616Y-96807583D01*
X146533327Y-96793080D01*
X146439625Y-96774876D01*
X146317476Y-96752066D01*
X146162842Y-96723741D01*
X146130770Y-96717780D01*
X146038893Y-96699352D01*
X145961607Y-96681892D01*
X145906236Y-96667133D01*
X145880105Y-96656810D01*
X145875733Y-96648197D01*
X145868445Y-96606826D01*
X145862669Y-96538241D01*
X145858410Y-96448868D01*
X145855673Y-96345135D01*
X145854462Y-96233465D01*
X145854782Y-96120287D01*
X145856636Y-96012026D01*
X145860030Y-95915108D01*
X145864967Y-95835959D01*
X145871452Y-95781006D01*
X145879489Y-95756674D01*
X145887696Y-95753079D01*
X145928519Y-95741748D01*
X145997524Y-95725722D01*
X146089203Y-95706195D01*
X146198050Y-95684362D01*
X146318558Y-95661418D01*
X146384357Y-95649159D01*
X146497135Y-95627901D01*
X146594207Y-95609287D01*
X146670382Y-95594328D01*
X146720469Y-95584036D01*
X146739276Y-95579422D01*
X146739983Y-95578471D01*
X146751961Y-95554310D01*
X146774794Y-95503694D01*
X146805630Y-95433338D01*
X146841613Y-95349958D01*
X146879891Y-95260270D01*
X146917609Y-95170989D01*
X146951913Y-95088832D01*
X146979949Y-95020513D01*
X146998864Y-94972748D01*
X147005803Y-94952254D01*
X147002742Y-94945043D01*
X146982372Y-94910728D01*
X146945422Y-94852970D01*
X146894860Y-94776299D01*
X146833657Y-94685248D01*
X146764781Y-94584350D01*
X146726994Y-94529093D01*
X146661782Y-94432215D01*
X146605871Y-94347193D01*
X146562241Y-94278662D01*
X146533877Y-94231260D01*
X146523759Y-94209623D01*
X146530790Y-94197887D01*
X146560197Y-94162818D01*
X146608441Y-94109745D01*
X146671093Y-94043164D01*
X146743725Y-93967574D01*
X146821908Y-93887472D01*
X146901214Y-93807354D01*
X146977213Y-93731718D01*
X147045478Y-93665062D01*
X147101580Y-93611882D01*
X147141090Y-93576676D01*
X147159579Y-93563942D01*
X147169843Y-93568893D01*
X147207530Y-93591857D01*
X147268348Y-93630938D01*
X147347913Y-93683272D01*
X147441843Y-93745996D01*
X147545754Y-93816246D01*
X147916794Y-94068551D01*
X148226080Y-93941053D01*
X148535365Y-93813555D01*
X148619186Y-93368931D01*
X148703006Y-92924307D01*
X149628454Y-92924307D01*
X149712275Y-93368931D01*
G36*
X149712275Y-93368931D02*
G01*
X149796095Y-93813555D01*
X150414667Y-94068551D01*
X150785707Y-93816246D01*
X150859144Y-93766506D01*
X150956499Y-93701218D01*
X151040787Y-93645454D01*
X151107631Y-93602078D01*
X151152654Y-93573953D01*
X151171478Y-93563942D01*
X151183039Y-93571061D01*
X151217596Y-93600894D01*
X151269894Y-93649852D01*
X151335500Y-93713440D01*
X151409983Y-93787163D01*
X151488913Y-93866525D01*
X151567856Y-93947031D01*
X151642384Y-94024185D01*
X151708063Y-94093493D01*
X151760463Y-94150457D01*
X151795153Y-94190584D01*
X151807701Y-94209377D01*
X151804782Y-94217451D01*
X151784571Y-94253469D01*
X151747663Y-94312744D01*
X151697050Y-94390630D01*
X151635725Y-94482481D01*
X151566679Y-94583650D01*
X151528787Y-94638826D01*
X151463606Y-94734884D01*
X151407723Y-94818717D01*
X151364117Y-94885777D01*
X151335769Y-94931519D01*
X151325657Y-94951396D01*
X151325823Y-94952497D01*
X151334743Y-94977694D01*
X151355206Y-95029147D01*
X151384360Y-95100135D01*
X151419353Y-95183935D01*
X151457332Y-95273828D01*
X151495445Y-95363091D01*
X151530839Y-95445003D01*
X151560662Y-95512843D01*
X151582061Y-95559890D01*
X151592184Y-95579422D01*
X151598174Y-95581155D01*
X151634566Y-95588969D01*
X151699427Y-95601915D01*
X151787565Y-95618979D01*
X151893787Y-95639151D01*
X152012902Y-95661418D01*
X152075683Y-95673223D01*
X152190912Y-95695748D01*
X152291662Y-95716550D01*
X152372426Y-95734435D01*
X152427698Y-95748208D01*
X152451971Y-95756674D01*
X152456331Y-95765066D01*
X152463563Y-95806072D01*
X152469246Y-95874368D01*
X152473382Y-95963529D01*
X152475977Y-96067128D01*
X152477036Y-96178740D01*
X152476561Y-96291938D01*
X152474559Y-96400296D01*
X152471033Y-96497389D01*
X152465987Y-96576790D01*
X152459427Y-96632072D01*
X152451356Y-96656810D01*
X152446458Y-96659600D01*
X152409930Y-96671569D01*
X152346565Y-96687405D01*
X152263686Y-96705374D01*
X152168618Y-96723741D01*
X152136542Y-96729591D01*
X151988393Y-96756798D01*
X151871961Y-96778663D01*
X151783209Y-96796093D01*
X151718103Y-96809996D01*
X151672606Y-96821277D01*
X151642682Y-96830843D01*
X151624294Y-96839601D01*
X151613407Y-96848457D01*
X151612142Y-96849943D01*
X151594338Y-96880931D01*
X151567994Y-96937634D01*
X151535661Y-97013399D01*
X151499893Y-97101574D01*
X151463244Y-97195507D01*
X151428266Y-97288547D01*
X151397513Y-97374041D01*
X151373538Y-97445336D01*
X151358895Y-97495782D01*
X151356136Y-97518726D01*
X151357981Y-97521703D01*
X151377075Y-97550493D01*
X151412984Y-97603595D01*
X151462378Y-97676117D01*
X151521927Y-97763167D01*
X151588303Y-97859854D01*
X151606520Y-97886456D01*
X151670577Y-97981875D01*
X151725937Y-98067212D01*
X151769439Y-98137405D01*
X151797924Y-98187394D01*
X151808232Y-98212116D01*
X151806011Y-98218616D01*
X151782858Y-98250644D01*
X151737177Y-98302945D01*
X151672241Y-98371999D01*
X151591319Y-98454286D01*
X151497685Y-98546286D01*
X151444165Y-98597781D01*
X151359542Y-98677983D01*
X151285475Y-98746678D01*
X151225941Y-98800252D01*
X151184917Y-98835085D01*
X151166381Y-98847563D01*
X151153646Y-98842938D01*
X151114436Y-98821057D01*
X151057495Y-98785273D01*
X150990250Y-98740117D01*
X150942438Y-98707165D01*
X150846985Y-98641727D01*
X150745125Y-98572228D01*
X150652088Y-98509075D01*
X150469832Y-98385800D01*
X150316841Y-98468520D01*
X150280817Y-98487613D01*
X150215303Y-98520272D01*
X150164640Y-98542819D01*
X150137564Y-98551226D01*
X150128703Y-98540430D01*
X150106699Y-98499323D01*
X150074199Y-98431549D01*
X150033010Y-98341409D01*
X149984942Y-98233205D01*
X149931802Y-98111237D01*
X149875399Y-97979808D01*
X149817542Y-97843218D01*
X149760038Y-97705767D01*
X149704697Y-97571758D01*
X149653326Y-97445491D01*
X149607735Y-97331268D01*
X149569732Y-97233390D01*
X149541124Y-97156157D01*
X149523721Y-97103871D01*
X149519331Y-97080833D01*
X149519628Y-97080160D01*
X149540077Y-97058863D01*
X149582850Y-97025508D01*
X149639117Y-96987011D01*
X149656877Y-96975256D01*
X149792014Y-96863735D01*
X149903856Y-96730906D01*
X149989755Y-96582298D01*
X150047062Y-96423440D01*
X150073131Y-96259860D01*
X150065313Y-96097088D01*
X150033644Y-95952315D01*
X149976782Y-95806124D01*
X149893888Y-95675703D01*
X149780131Y-95551813D01*
X149735433Y-95512235D01*
X149590935Y-95414723D01*
X149434838Y-95349050D01*
X149271667Y-95314630D01*
X149105943Y-95310874D01*
X148942192Y-95337194D01*
X148784936Y-95393003D01*
X148638698Y-95477714D01*
X148508004Y-95590737D01*
X148397374Y-95731487D01*
X148376105Y-95766342D01*
X148303810Y-95925655D01*
X148265415Y-96091552D01*
X148259914Y-96259737D01*
X148286301Y-96425913D01*
X148343570Y-96585784D01*
X148430717Y-96735053D01*
X148546736Y-96869423D01*
X148690622Y-96984599D01*
X148695294Y-96987702D01*
X148750964Y-97026933D01*
X148792689Y-97060286D01*
X148811746Y-97080833D01*
X148809342Y-97096941D01*
X148794391Y-97143844D01*
X148767881Y-97216539D01*
X148731620Y-97310725D01*
X148687416Y-97422098D01*
X148637076Y-97546358D01*
X148582407Y-97679202D01*
X148525218Y-97816327D01*
X148467316Y-97953432D01*
X148410510Y-98086215D01*
X148356606Y-98210374D01*
X148307412Y-98321606D01*
X148264737Y-98415609D01*
X148230387Y-98488082D01*
X148206171Y-98534722D01*
X148193897Y-98551226D01*
X148183689Y-98548991D01*
X148143586Y-98532926D01*
X148084318Y-98504759D01*
X148014619Y-98468520D01*
X147861629Y-98385800D01*
X147679373Y-98509075D01*
X147625527Y-98545579D01*
X147525374Y-98613784D01*
X147425525Y-98682098D01*
X147341211Y-98740117D01*
X147294679Y-98771736D01*
X147234200Y-98811020D01*
X147189357Y-98837912D01*
X147167455Y-98847883D01*
X147158045Y-98843650D01*
X147124031Y-98817721D01*
X147071595Y-98772070D01*
X147005301Y-98711186D01*
X146929713Y-98639561D01*
X146849396Y-98561683D01*
X146768913Y-98482045D01*
X146692829Y-98405135D01*
X146625707Y-98335445D01*
X146572112Y-98277464D01*
X146536608Y-98235684D01*
X146523759Y-98214593D01*
X146524500Y-98210581D01*
X146539793Y-98177920D01*
X146572462Y-98121412D01*
X146619350Y-98046163D01*
X146677301Y-97957275D01*
X146743157Y-97859854D01*
X146761627Y-97832982D01*
X146826482Y-97738423D01*
X146883609Y-97654827D01*
X146929678Y-97587084D01*
X146961359Y-97540086D01*
X146975324Y-97518726D01*
X146975668Y-97517811D01*
X146971546Y-97491678D01*
X146955807Y-97438740D01*
X146931004Y-97365647D01*
X146899689Y-97279052D01*
X146864417Y-97185608D01*
X146827740Y-97091965D01*
X146792212Y-97004777D01*
X146760386Y-96930695D01*
X146734816Y-96876371D01*
X146718053Y-96848457D01*
X146716374Y-96846724D01*
X146704372Y-96837956D01*
X146684103Y-96829115D01*
X146651529Y-96819292D01*
X146602616Y-96807583D01*
X146533327Y-96793080D01*
X146439625Y-96774876D01*
X146317476Y-96752066D01*
X146162842Y-96723741D01*
X146130770Y-96717780D01*
X146038893Y-96699352D01*
X145961607Y-96681892D01*
X145906236Y-96667133D01*
X145880105Y-96656810D01*
X145875733Y-96648197D01*
X145868445Y-96606826D01*
X145862669Y-96538241D01*
X145858410Y-96448868D01*
X145855673Y-96345135D01*
X145854462Y-96233465D01*
X145854782Y-96120287D01*
X145856636Y-96012026D01*
X145860030Y-95915108D01*
X145864967Y-95835959D01*
X145871452Y-95781006D01*
X145879489Y-95756674D01*
X145887696Y-95753079D01*
X145928519Y-95741748D01*
X145997524Y-95725722D01*
X146089203Y-95706195D01*
X146198050Y-95684362D01*
X146318558Y-95661418D01*
X146384357Y-95649159D01*
X146497135Y-95627901D01*
X146594207Y-95609287D01*
X146670382Y-95594328D01*
X146720469Y-95584036D01*
X146739276Y-95579422D01*
X146739983Y-95578471D01*
X146751961Y-95554310D01*
X146774794Y-95503694D01*
X146805630Y-95433338D01*
X146841613Y-95349958D01*
X146879891Y-95260270D01*
X146917609Y-95170989D01*
X146951913Y-95088832D01*
X146979949Y-95020513D01*
X146998864Y-94972748D01*
X147005803Y-94952254D01*
X147002742Y-94945043D01*
X146982372Y-94910728D01*
X146945422Y-94852970D01*
X146894860Y-94776299D01*
X146833657Y-94685248D01*
X146764781Y-94584350D01*
X146726994Y-94529093D01*
X146661782Y-94432215D01*
X146605871Y-94347193D01*
X146562241Y-94278662D01*
X146533877Y-94231260D01*
X146523759Y-94209623D01*
X146530790Y-94197887D01*
X146560197Y-94162818D01*
X146608441Y-94109745D01*
X146671093Y-94043164D01*
X146743725Y-93967574D01*
X146821908Y-93887472D01*
X146901214Y-93807354D01*
X146977213Y-93731718D01*
X147045478Y-93665062D01*
X147101580Y-93611882D01*
X147141090Y-93576676D01*
X147159579Y-93563942D01*
X147169843Y-93568893D01*
X147207530Y-93591857D01*
X147268348Y-93630938D01*
X147347913Y-93683272D01*
X147441843Y-93745996D01*
X147545754Y-93816246D01*
X147916794Y-94068551D01*
X148226080Y-93941053D01*
X148535365Y-93813555D01*
X148619186Y-93368931D01*
X148703006Y-92924307D01*
X149628454Y-92924307D01*
X149712275Y-93368931D01*
G37*
%TD*%
%LPC*%
D11*
%TO.C,J2*%
X158600000Y-92500000D03*
D12*
X158650000Y-94500000D03*
X158650000Y-96500000D03*
D13*
X158600000Y-98500000D03*
D14*
X158500000Y-100500000D03*
%TD*%
D15*
%TO.C,J1*%
X142400000Y-92500000D03*
D16*
X142100000Y-94500000D03*
D17*
X142600000Y-96500000D03*
D18*
X142400000Y-98500000D03*
D19*
X142300000Y-100500000D03*
%TD*%
%LPD*%
M02*
