M48
; DRILL file {KiCad 9.0.1} date 2025-04-30T19:02:26+0200
; FORMAT={-:-/ absolute / inch / decimal}
; #@! TF.CreationDate,2025-04-30T19:02:26+02:00
; #@! TF.GenerationSoftware,Kicad,Pcbnew,9.0.1
; #@! TF.FileFunction,Plated,1,2,PTH
FMAT,2
INCH
; #@! TA.AperFunction,Plated,PTH,ViaDrill
T1C0.0079
%
G90
G05
T1
X5.7126Y-3.5709
X5.7126Y-4.0276
X5.7205Y-3.6181
X5.7244Y-3.8346
X5.7323Y-3.6732
X5.7362Y-3.7441
X5.748Y-3.8642
X5.748Y-3.937
X5.7598Y-4.0276
X5.7717Y-3.5709
X5.7913Y-3.7677
X5.815Y-4.0276
X5.8169Y-3.685
X5.8189Y-3.8602
X5.8445Y-3.7323
X5.8465Y-3.6417
X5.8504Y-3.5748
X5.8661Y-3.7106
X5.874Y-4.0276
X5.9193Y-3.8248
X5.9213Y-3.7717
X5.9213Y-3.9291
X5.937Y-3.5748
X5.9488Y-3.6417
X6.0315Y-3.5748
X6.0512Y-3.6417
X6.0827Y-3.9528
X6.1142Y-3.5748
X6.1181Y-3.6181
X6.122Y-3.6693
M30
